<svg width="21" height="24" viewBox="0 0 21 24" fill="none" xmlns="http://www.w3.org/2000/svg">
<path d="M17.0143 12.7504C17.0481 16.3824 20.2005 17.5911 20.2355 17.6065C20.2088 17.6917 19.7317 19.3288 18.5746 21.0199C17.5742 22.482 16.5361 23.9386 14.9006 23.9688C13.2936 23.9984 12.7769 23.0158 10.9396 23.0158C9.10293 23.0158 8.52881 23.9386 7.00761 23.9984C5.42898 24.0582 4.22682 22.4175 3.21824 20.9608C1.15724 17.9811 -0.417786 12.5409 1.69708 8.86873C2.7477 7.0451 4.62524 5.8903 6.66314 5.86069C8.21332 5.83112 9.67646 6.9036 10.6241 6.9036C11.5712 6.9036 13.3493 5.61385 15.2185 5.80327C16.001 5.83584 18.1976 6.11936 19.608 8.18392C19.4944 8.25437 16.9871 9.71399 17.0143 12.7504ZM13.9942 3.83196C14.8323 2.81747 15.3964 1.4052 15.2425 0C14.0344 0.0485541 12.5736 0.805021 11.7071 1.81896C10.9305 2.71684 10.2504 4.15397 10.4339 5.53135C11.7804 5.63553 13.156 4.8471 13.9942 3.83196Z" fill="black"/>
</svg>
